<svg width="22" height="25" viewBox="0 0 22 25" fill="none" xmlns="http://www.w3.org/2000/svg">
<path d="M21.7096 9.77664L11.2929 0.22799C10.9535 -0.0825086 10.4315 -0.0749402 10.1016 0.24508L0.263624 9.79368C0.0952151 9.95716 0 10.182 0 10.4166V24.1319C0 24.6114 0.388575 25 0.868068 25H8.10187C8.58131 25 8.96994 24.6114 8.96994 24.1319V17.7662H13.0209V24.1319C13.0209 24.6114 13.4094 25 13.8889 25H21.1227C21.6022 25 21.9908 24.6117 21.9908 24.1319V10.4167C21.9908 10.1733 21.8889 9.94129 21.7096 9.77664ZM20.2547 23.2639H14.757V16.8982C14.757 16.4187 14.3684 16.0301 13.8889 16.0301H8.10192C7.62247 16.0301 7.23385 16.4187 7.23385 16.8982V23.2639H1.73614V10.7839L10.7232 2.06134L20.2547 10.7986V23.2639H20.2547Z" fill="#141414"/>
</svg>
